# xmcd
#
# Track frame offsets:
#	150
#	14630
#	25945
#	36617
#	50980
#	61595
#	72935
#	86247
#	100702
#	112607
#	128445
#	140820
#	152730
#	166422
#	177267
#	192030
#	202872
#	216617
#	226682
#	239135
#	251485
#
# Disc length: 3500 seconds
#
# Revision: 0
# Processed by: cddbd v1.4PL0 Copyright (c) Steve Scherf et al.
# Submitted via: dBpowerAMP V4.0
#
DISCID=2a0daa15
DTITLE=Tommy Hunter - Timeless Country Treasures
DYEAR=1900
DGENRE=
TTITLE0=Wabash Cannonball (Tribute To Roy Acuff)
TTITLE1=Release Me
TTITLE2=Lonesone 77203
TTITLE3=Have I Told You Lately That I Love You
TTITLE4=Singin' The Blues
TTITLE5=Tennessee Waltz
TTITLE6=Oh Lonesome Me
TTITLE7=Cold, Cold Heart
TTITLE8=I Wonder How The Old Folks Are At Home
TTITLE9=Daisy A Day
TTITLE10=Gotta Travel On
TTITLE11=Boquet Of Roses
TTITLE12=Make The World Go Away
TTITLE13=This Ole House
TTITLE14=You Are My Sunshine
TTITLE15=I'm Movin' On
TTITLE16=Blue Eyes Crying In The Rain
TTITLE17=Wreck Of The Old '97
TTITLE18=Candy Kisses
TTITLE19=Heartaches By The Number
TTITLE20=I'll Fly Away
EXTD=
EXTT0=
EXTT1=
EXTT2=
EXTT3=
EXTT4=
EXTT5=
EXTT6=
EXTT7=
EXTT8=
EXTT9=
EXTT10=
EXTT11=
EXTT12=
EXTT13=
EXTT14=
EXTT15=
EXTT16=
EXTT17=
EXTT18=
EXTT19=
EXTT20=
PLAYORDER=
